<svg id="land" class = "nymap_layer nymap_static_layer" xmlns="http://www.w3.org/2000/svg" xmlns:xlink="http://www.w3.org/1999/xlink" viewBox="0 0 1381.88 1495.88"><defs><style>#land .cls-1{fill:none;}#land .cls-2{clip-path:url(#clip-path);}#land .cls-3{fill:#fff;stroke:#fff;stroke-linejoin:round;stroke-width:8px;}</style><clipPath id="clip-path"><rect class="cls-1" width="1381.88" height="1495.88"/></clipPath></defs><g class="cls-2"><path id="polygon16" class="cls-3" d="M834.93,595.65V487.42l4-4h2.83l3.85,3.85V595.65l-3.94,3.94h-5.05Z"/><path id="polygon24" class="cls-3" d="M844.38,151.75h64.46l10.79,10.79v8.25l-59.75,59.75h-16l-8-8V160.25Z"/><path id="polygon8" class="cls-3" d="M817.61,822.22V179.09l-66-28.51H638.84l-31.5-31.5L247-241.25h-65.3l-37.8,37.8V668.89L454.69,1360l39.89,39.89H715.12l53.72-53.72V1234.82l97.46-97.47V900.42Z"/><path id="polygon10" class="cls-3" d="M1492-500.6v156.1L1296.8-149.36h-29.58l-62.5-62.5h-21.55l-11.57,11.57v12.44l77,77-226,226H685.26l-648-648,1454.27,5Z"/><path id="polyline12" class="cls-3" d="M1856.21,1389.9l166.46-166.46L2279,977.11h449.78V-148.49H1754.56l-69.17,69.17-92.13,92.14L1702.5,122.06v10.43L1697,138h-20.65l-35.13-35.13-30,30-53.34-53.34h-40.48l-115.7,115.7H949.75l-86.07,86.07V749.07H1133.8l-.12,16.5h-270V806.7l67.11,67.11v305.54l-93.29,93.29v351.12l13,13H976.51v-90h20v90h9.11l12.83,12.83v355.22l119.17,119.18h267.51l14.87-14.87h20.77l10.52,10.52V2133l-8.26,8.26-6.87,6.87v7.38l10.84,10.84h13.59l276.88-276.88v-22.84l-8.31-8.32h-19.07l-12.59,12.59-14.61,14.61h-16.56L1643.9,1863v-19.48l212.31-212.3V1389.9"/></g></svg>