<svg id="green" class = "nymap_layer nymap_static_layer" xmlns="http://www.w3.org/2000/svg" viewBox="0 0 1381.88 1495.88"><defs><style>#green .cls-1,#green .cls-2{fill:#c8e6a4;}#green .cls-1,#green .cls-2{stroke:#c8e6a4;stroke-linejoin:round;stroke-width:8px;}</style></defs><g id="rect22"><rect class="cls-1" x="390.36" y="210.86" width="214.83" height="324.77" rx="6.14"/><path class="cls-1" d="M599,214.86a2.14,2.14,0,0,1,2.14,2.14V529.48a2.15,2.15,0,0,1-2.14,2.15H396.5a2.15,2.15,0,0,1-2.14-2.15V217a2.14,2.14,0,0,1,2.14-2.14H599m0-8H396.5A10.14,10.14,0,0,0,386.36,217V529.48a10.15,10.15,0,0,0,10.14,10.15H599a10.15,10.15,0,0,0,10.14-10.15V217A10.14,10.14,0,0,0,599,206.86Z"/></g><path id="polygon42" class="cls-2" d="M482.55,1352.18H640.88v29.89H512.44Z"/><path id="polyline44" class="cls-2" d="M1214.88,1604l96,96,65.34-65.34-32.17-32.16v-42.18l-69-68.95-20.32-18.27-64.4,64.4V1604h24.5"/></svg>