<svg id="hover_zone" class = "nymap_layer nymap_hover_layer" xmlns="http://www.w3.org/2000/svg" viewBox="0 0 1381.88 1495.88"><defs><style>#hover_zone .cls-1{fill:#198e72;}#hover_zone .cls-2{font-size:40px;font-family:HiraKakuProN-W6-83pv-RKSJ-H, Hiragino Kaku Gothic ProN;}#hover_zone .cls-16,#hover_zone .cls-3{font-size:24.72px;font-family:CircularStd-Medium, Circular Std;font-weight:500;}#hover_zone .cls-4{letter-spacing:0em;}#hover_zone .cls-5{letter-spacing:-0.01em;}#hover_zone .cls-6{letter-spacing:0em;}#hover_zone .cls-7{letter-spacing:0em;}#hover_zone .cls-8{letter-spacing:-0.04em;}#hover_zone .cls-9{letter-spacing:0em;}#hover_zone .cls-10{letter-spacing:-0.01em;}#hover_zone .cls-11{letter-spacing:-0.01em;}#hover_zone .cls-12,#hover_zone .cls-16{letter-spacing:0em;}#hover_zone .cls-13{letter-spacing:-0.01em;}#hover_zone .cls-14{letter-spacing:0em;}#hover_zone .cls-15{letter-spacing:0em;}#hover_zone .cls-17{letter-spacing:0em;}#hover_zone .cls-18{letter-spacing:0.01em;}</style></defs><rect class="nymap_hover_zone cls-1" x="600.07" y="302.6" width="217.54" height="236.52"/><text class="cls-2" transform="translate(654.78 413.71)">上東區<tspan class="cls-3"><tspan class="cls-4" x="-29.56" y="40">U</tspan><tspan x="-12.8" y="40">pper </tspan><tspan class="cls-5" x="46.12" y="40">E</tspan><tspan x="60.26" y="40">ast </tspan><tspan class="cls-6" x="99.85" y="40">S</tspan><tspan class="cls-7" x="114.58" y="40">ide</tspan></tspan></text><rect class="nymap_hover_zone cls-1" x="143.91" y="207.36" width="256.12" height="331.77"/><text class="cls-2" transform="translate(205.64 357.05)">上西區<tspan class="cls-3"><tspan class="cls-4" x="-34.8" y="40">U</tspan><tspan x="-18.04" y="40">pper </tspan><tspan class="cls-8" x="40.88" y="40">W</tspan><tspan x="65.1" y="40">est </tspan><tspan class="cls-9" x="105.09" y="40">S</tspan><tspan x="119.82" y="40">ide</tspan></tspan></text><polygon class="nymap_hover_zone cls-1" points="817.61 822.22 817.61 539.13 143.91 539.13 143.91 668.89 261.36 930.08 866.31 930.08 866.31 900.42 817.61 822.22"/><text class="cls-2" transform="translate(454.5 721.28)"><tspan class="cls-10">中</tspan><tspan x="39.72" y="0">城</tspan><tspan class="cls-3"><tspan x="-28.59" y="40">Middle</tspan><tspan class="cls-6" x="51.32" y="40">t</tspan><tspan class="cls-11" x="60.27" y="40">o</tspan><tspan x="74.28" y="40">wn</tspan></tspan></text><polygon class="nymap_hover_zone cls-1" points="494.58 1399.93 715.12 1399.93 768.84 1346.21 768.84 1234.82 866.3 1137.35 866.31 930.08 261.36 930.08 454.69 1360.04 494.58 1399.93"/><text class="cls-2" transform="translate(545.72 1096.16)">下城<tspan class="cls-3"><tspan class="cls-12" x="-60.02" y="40">L</tspan><tspan class="cls-13" x="-46.36" y="40">ow</tspan><tspan x="-12.52" y="40">er </tspan><tspan class="cls-6" x="16.54" y="40">M</tspan><tspan class="cls-7" x="39.95" y="40">anh</tspan><tspan class="cls-14" x="81.47" y="40">a</tspan><tspan x="94.57" y="40">t</tspan><tspan class="cls-15" x="103.59" y="40">t</tspan><tspan x="112.69" y="40">an</tspan></tspan></text><polygon class="nymap_hover_zone cls-1" points="863.68 509.15 1049.01 509.15 1049.01 575.61 985.8 638.82 985.8 749.07 863.68 749.07 863.68 509.15"/><text class="cls-2" transform="translate(881.11 580.9)">長島市<tspan class="cls-16"><tspan x="0" y="40">L</tspan><tspan class="cls-17" x="13.67" y="40">ong </tspan></tspan><tspan class="cls-3"><tspan x="0" y="69.66">Is</tspan><tspan class="cls-12" x="18.51" y="69.66">l</tspan><tspan x="25.04" y="69.66">and </tspan><tspan x="0" y="99.32">Ci</tspan><tspan class="cls-18" x="25.28" y="99.32">t</tspan><tspan x="34.55" y="99.32">y</tspan></tspan></text></svg>