<svg id="hover_zone" class = "nymap_layer nymap_hover_layer" xmlns="http://www.w3.org/2000/svg" viewBox="0 0 1381.88 1495.88">
  <defs>
    <style>
      #hover_zone .cls-1
      {
        fill: #198e72;
      }
      #hover_zone g
      {
        pointer-events: none;
      }
      .hover .nymap_hover_zone:hover, 
      .hover .zone_hovered
      {
        transition: opacity .35s;
        opacity:1;
        cursor: pointer;
      }
      .hover .nymap_hover_zone:hover + g path, 
      .hover .zone_hovered + g path
      {
        fill: #fff;
      }
      .hover #hover_zone_queens:hover ~ #text_lic path, 
      .hover #hover_zone_queens.zone_hovered ~ #text_lic path
      {
        fill: #198e72;
      }
    </style>
  </defs>
  <!-- queens shape -->
  <polygon id = 'hover_zone_queens' class="nymap_hover_zone cls-1" points="949.75 195.24 863.68 281.31 863.68 749.07 1133.8 749.07 1133.74 756.75 1381.88 756.75 1381.88 195.24 949.75 195.24"/>
  <!-- queens text -->
  <g id = 'text_queens'>
    <path d="M1076.93,383.39a24.56,24.56,0,0,0-4.36.24v-4.08a25.58,25.58,0,0,0,4.44.24h23.35a25.25,25.25,0,0,0,4.52-.24v4.08a26.14,26.14,0,0,0-4.44-.24h-9.84v2.48h8.68a24.7,24.7,0,0,0,4-.2v4a25.06,25.06,0,0,0-3.92-.2h-8.72v2.72H1102a27.91,27.91,0,0,0,4.68-.24v4.4a39.08,39.08,0,0,0-5-.24h-26a39.52,39.52,0,0,0-5,.24v-4.4a29.07,29.07,0,0,0,4.68.24h10.87v-2.72h-8.11a25.9,25.9,0,0,0-4,.2v-4a26.75,26.75,0,0,0,4.08.2h8v-2.48Zm8-19.8a14.85,14.85,0,0,0,1.24-3.44l5,.48c-.76,1.52-1.28,2.52-1.52,3h8.76a43.35,43.35,0,0,0,4.48-.16,27.58,27.58,0,0,0-.16,3.76v6.92a32.37,32.37,0,0,0,.16,4c-1-.08-2.4-.12-4.12-.12h-20q-2.22,0-4.08.12a33.32,33.32,0,0,0,.16-3.92v-6.64a28.48,28.48,0,0,0-.16-4.08,42.85,42.85,0,0,0,4.48.16Zm-5.87,5.6h19.35v-2H1079Zm0,5.28h19.35v-2H1079Z"/>
    <path d="M1118.29,375.11c-.4,10.76-1.72,16.2-5.12,21.6a20.58,20.58,0,0,0-3.52-3.44,21.87,21.87,0,0,0,3.52-8.84,100.79,100.79,0,0,0,.92-15.2c0-3.48,0-5.08-.16-6.2a17.7,17.7,0,0,0,2,.12,127.83,127.83,0,0,0,17.35-1.4,33.18,33.18,0,0,0,7.12-1.76l3.48,3.84c-7.8,1.92-14.48,2.72-25.43,3.08v3.92h24a29.56,29.56,0,0,0,4.24-.24v4.76a31.34,31.34,0,0,0-4.2-.24Zm1.64,21.84a32.73,32.73,0,0,0,.24-4.8v-8.84A37.73,37.73,0,0,0,1120,379c.88.08,2.4.12,3.83.12h15.88a31.3,31.3,0,0,0,3.88-.16,38.54,38.54,0,0,0-.16,4.32v8.92a31.09,31.09,0,0,0,.24,4.72h-4.56v-2.16h-14.68V397Zm4.47-6h14.76v-7.8H1124.4Z"/>
    <path d="M1181.28,391.75a34.94,34.94,0,0,0,4.92-.2v4.16a37.67,37.67,0,0,0-4.88-.24h-24.75v1.68h-4.48a41.59,41.59,0,0,0,.24-5V366c0-2-.08-3.2-.16-4.48a36.81,36.81,0,0,0,4.88.2h23.55a39.64,39.64,0,0,0,5-.24v4.16a38.65,38.65,0,0,0-4.92-.2h-24.15v26.32Zm-10.72-5.32a23.31,23.31,0,0,0,.12,3.28,31.3,31.3,0,0,0-3.72-.16h-4.76a30.06,30.06,0,0,0-3.67.16c.08-1,.12-1.64.12-3.28v-4.28c0-1.56,0-2.28-.12-3.24a18.6,18.6,0,0,0,2.92.16h6.27a26,26,0,0,0,3-.12,25.92,25.92,0,0,0-.12,3.4Zm-8.11-4v3.76h4.39v-3.76Zm.44-12a20.83,20.83,0,0,0-.17-3c1.12.08,2,.12,3.56.12h10.28c1.72,0,2.64,0,3.52-.12-.08.88-.12,1.72-.12,3V374a23.88,23.88,0,0,0,.12,3.2c-1.28-.08-2.28-.12-4.16-.12h-9c-1.84,0-2.92,0-4.2.12a22.25,22.25,0,0,0,.17-3.16Zm3.95.44v2.84H1176v-2.84Zm17.92,15.56c0,1.44,0,2.4.12,3.28a30.87,30.87,0,0,0-3.72-.16h-4.8a30.14,30.14,0,0,0-3.68.16c.08-.92.12-1.68.12-3.28v-4.28c0-1.48,0-2.12-.12-3.2a28.16,28.16,0,0,0,2.92.12h6.32a19.5,19.5,0,0,0,3-.16c-.08,1-.12,2-.12,3.44Zm-8.24-4v3.76H1181v-3.76Z"/>
    <path d="M1095.32,416a8.8,8.8,0,0,1,8.93,9.12,9.15,9.15,0,0,1-2.28,6.26l2.08,2.32-2,1.71-2.15-2.35a9.19,9.19,0,0,1-4.58,1.21,9.14,9.14,0,0,1,0-18.27Zm0,15.45a6,6,0,0,0,2.62-.57l-2.89-3.21,2-1.73,2.91,3.24a6.67,6.67,0,0,0,1.22-4.06c0-4.23-2.92-6.33-5.89-6.33s-5.86,2.1-5.86,6.33S1092.38,431.46,1095.32,431.46Z"/>
    <path d="M1111.51,434.25c-2.87,0-4.55-2.12-4.55-4.79v-7.59h2.87v7.07c0,1.48.69,2.74,2.42,2.74a2.41,2.41,0,0,0,2.52-2.69v-7.12h2.87v9.84a19.16,19.16,0,0,0,.13,2.2H1115a8.86,8.86,0,0,1-.1-1.34A3.84,3.84,0,0,1,1111.51,434.25Z"/>
    <path d="M1131.93,430.47a5.43,5.43,0,0,1-5.44,3.81,6.4,6.4,0,0,1-.3-12.78c3.71,0,5.89,2.45,5.89,6.25a3.82,3.82,0,0,1-.08.92h-8.8a3.23,3.23,0,0,0,3.29,3.14,2.92,2.92,0,0,0,3-2.1Zm-2.75-3.9a2.69,2.69,0,0,0-3-2.67,2.88,2.88,0,0,0-2.94,2.67Z"/>
    <path d="M1145.47,430.47a5.42,5.42,0,0,1-5.44,3.81,6.4,6.4,0,0,1-.29-12.78c3.7,0,5.88,2.45,5.88,6.25a4.86,4.86,0,0,1-.07.92h-8.8a3.21,3.21,0,0,0,3.28,3.14,2.92,2.92,0,0,0,3-2.1Zm-2.74-3.9a2.7,2.7,0,0,0-3-2.67,2.89,2.89,0,0,0-2.94,2.67Z"/>
    <path d="M1151.23,433.91h-2.87v-12h2.8v1.61a4,4,0,0,1,3.55-2c3,0,4.36,2.13,4.36,4.77v7.62h-2.87v-7.12c0-1.48-.67-2.67-2.47-2.67-1.64,0-2.5,1.26-2.5,2.84Z"/>
    <path d="M1164,430a2.26,2.26,0,0,0,2.45,2.05c1.19,0,1.8-.64,1.8-1.38s-.44-1.14-1.41-1.34l-1.78-.39c-2.12-.47-3.23-1.85-3.23-3.51a4.17,4.17,0,0,1,4.42-3.88c3.36,0,4.45,2.17,4.65,3.36l-2.42.69a2.07,2.07,0,0,0-2.23-1.8,1.57,1.57,0,0,0-1.73,1.38,1.32,1.32,0,0,0,1.21,1.26l1.83.37c2.28.5,3.46,1.88,3.46,3.66s-1.48,3.86-4.55,3.86c-3.48,0-4.82-2.28-5-3.64Z"/>
  </g>
  <!-- upper east shape -->
  <rect id = 'hover_zone_upper-east' class="nymap_hover_zone cls-1" x="600.07" y="302.6" width="217.54" height="236.52"/>
   <!-- upper east text -->
  <g id = 'text_upper-east'>
    <path d="M676.1,411.07h11.51a51.37,51.37,0,0,0,5.4-.24v4.8a43.65,43.65,0,0,0-5.32-.28H662.3a50,50,0,0,0-5.52.28v-4.8a52.78,52.78,0,0,0,5.52.24h9.12V385.24a34.24,34.24,0,0,0-.28-4.6h5.23a33.91,33.91,0,0,0-.27,4.6v6.83h9.39a40.74,40.74,0,0,0,4.64-.24v4.76a41.77,41.77,0,0,0-4.64-.24H676.1Z"/>
    <path d="M701.58,387.55a32.62,32.62,0,0,0-4.84.25v-4.4a35.21,35.21,0,0,0,5.12.28h10.56a23.1,23.1,0,0,0-.28-3.6H717a19.87,19.87,0,0,0-.24,3.6h10.92a33.51,33.51,0,0,0,5.24-.28v4.4a40.37,40.37,0,0,0-5-.25h-11.2v2.24h8.36a38.72,38.72,0,0,0,4.44-.16c-.12,1.2-.16,2.52-.16,4v7.4a31.52,31.52,0,0,0,.16,4.08,31.58,31.58,0,0,0-4.48-.2h-4.8c3.56,3.36,7.8,5.44,13.88,6.84a26.44,26.44,0,0,0-2.28,4.24,41.88,41.88,0,0,1-8.2-3.64,25.73,25.73,0,0,1-7-5.76c0,1.32.07,2.08.07,2.76v2.88a23.55,23.55,0,0,0,.29,4.56h-4.92a32.07,32.07,0,0,0,.28-4.56v-2.88c0-.48,0-2,.08-2.72a26,26,0,0,1-7.64,6.32,41.5,41.5,0,0,1-6.84,3.08,17.09,17.09,0,0,0-2.24-4,33.49,33.49,0,0,0,7.52-3A23.74,23.74,0,0,0,709,405H704.7a30.51,30.51,0,0,0-4.52.2,5.21,5.21,0,0,1,.12-1.16c0-.16,0-.16,0-2.92v-7.36a38.18,38.18,0,0,0-.16-4.12,28,28,0,0,0,4.36.2h7.88v-2.24Zm3,5.68v2.44h7.84v-2.44Zm0,5.76v2.52h7.84V399Zm12.19-3.32h8.4v-2.44h-8.4Zm0,5.84h8.4V399h-8.4Z"/>
    <path d="M767.37,411.55a34.94,34.94,0,0,0,4.92-.2v4.16a37.67,37.67,0,0,0-4.88-.24H742.66V417h-4.48a41.59,41.59,0,0,0,.24-5V385.8c0-2-.08-3.2-.16-4.48a36.81,36.81,0,0,0,4.88.2h23.55a39.64,39.64,0,0,0,5-.24v4.16a38.65,38.65,0,0,0-4.92-.2H742.66v26.31Zm-10.71-5.32a25.41,25.41,0,0,0,.11,3.28,31,31,0,0,0-3.71-.16H748.3a30.14,30.14,0,0,0-3.68.16c.08-1,.12-1.64.12-3.28V402c0-1.56,0-2.28-.12-3.24a18.6,18.6,0,0,0,2.92.16h6.28a25.75,25.75,0,0,0,2.95-.12,28.26,28.26,0,0,0-.11,3.4Zm-8.12-4V406h4.4v-3.76Zm.44-12a22.5,22.5,0,0,0-.16-3c1.12.09,2,.13,3.56.13h10.27a33.14,33.14,0,0,0,3.52-.13c-.08.88-.12,1.72-.12,3v3.6a23.88,23.88,0,0,0,.12,3.2c-1.28-.08-2.28-.12-4.16-.12h-9c-1.84,0-2.92,0-4.2.12a24,24,0,0,0,.16-3.16Zm4,.44v2.84h9.11v-2.84Zm17.91,15.56c0,1.44,0,2.4.12,3.28a30.87,30.87,0,0,0-3.72-.16h-4.8a30.14,30.14,0,0,0-3.68.16c.08-.92.12-1.68.12-3.28V402c0-1.48,0-2.12-.12-3.2a28.16,28.16,0,0,0,2.92.12H768a19.5,19.5,0,0,0,3-.16c-.08,1-.12,2-.12,3.44Zm-8.24-4V406h4.44v-3.76Z"/>
    <path d="M627.13,447.61V436.18h2.94v11.25c0,2.47,1.36,3.83,3.58,3.83s3.59-1.36,3.59-3.83V436.18h3v11.43c0,4.22-2.87,6.47-6.55,6.47S627.13,451.83,627.13,447.61Z"/>
    <path d="M643.83,458.41V441.67h2.77v1.63a4.35,4.35,0,0,1,3.83-1.9c3.56,0,5.57,2.72,5.57,6.28s-2.2,6.33-5.67,6.33a4.31,4.31,0,0,1-3.65-1.66v6.06ZM649.89,444c-1.88,0-3.24,1.48-3.24,3.73s1.36,3.78,3.24,3.78,3.24-1.48,3.24-3.78S651.82,444,649.89,444Z"/>
    <path d="M658.76,458.41V441.67h2.77v1.63a4.34,4.34,0,0,1,3.83-1.9c3.56,0,5.56,2.72,5.56,6.28s-2.2,6.33-5.66,6.33a4.34,4.34,0,0,1-3.66-1.66v6.06ZM664.82,444c-1.88,0-3.24,1.48-3.24,3.73s1.36,3.78,3.24,3.78,3.24-1.48,3.24-3.78S666.75,444,664.82,444Z"/>
    <path d="M684.34,450.27a5.4,5.4,0,0,1-5.43,3.81,6.4,6.4,0,0,1-.3-12.78c3.71,0,5.88,2.45,5.88,6.26a4.71,4.71,0,0,1-.07.91h-8.8a3.22,3.22,0,0,0,3.29,3.14,2.9,2.9,0,0,0,3-2.1Zm-2.74-3.9a2.7,2.7,0,0,0-3-2.67,2.89,2.89,0,0,0-2.94,2.67Z"/>
    <path d="M694.28,444.51a7.72,7.72,0,0,0-.94-.07c-2.22,0-3.24,1.29-3.24,3.54v5.73h-2.87v-12H690v1.93a3.64,3.64,0,0,1,3.48-2.08,3.56,3.56,0,0,1,.77.08Z"/>
    <path d="M703,453.71V436.18h10.83V439H706v4.65h7.12v2.7H706v4.64h7.86v2.77Z"/>
    <path d="M719.78,446.81l3.09-.47c.7-.09.89-.44.89-.86,0-1-.69-1.83-2.27-1.83a2.31,2.31,0,0,0-2.47,2.18l-2.62-.6c.22-2.07,2.1-3.93,5.07-3.93,3.7,0,5.11,2.1,5.11,4.5v6a11.32,11.32,0,0,0,.15,1.93h-2.67a7.15,7.15,0,0,1-.12-1.53,4.22,4.22,0,0,1-3.71,1.9,3.78,3.78,0,0,1-4.08-3.63C716.15,448.3,717.73,447.11,719.78,446.81Zm4,1.91v-.55l-3.14.47a1.66,1.66,0,0,0-1.6,1.63,1.59,1.59,0,0,0,1.75,1.56C722.38,451.83,723.76,451.07,723.76,448.72Z"/>
    <path d="M731.47,449.76a2.26,2.26,0,0,0,2.45,2.05c1.19,0,1.81-.65,1.81-1.39s-.45-1.13-1.41-1.33l-1.78-.4c-2.13-.47-3.24-1.85-3.24-3.51a4.17,4.17,0,0,1,4.42-3.88c3.37,0,4.45,2.18,4.65,3.36l-2.42.7a2.07,2.07,0,0,0-2.23-1.81,1.57,1.57,0,0,0-1.73,1.39,1.32,1.32,0,0,0,1.21,1.26l1.83.37c2.28.49,3.46,1.88,3.46,3.66s-1.48,3.85-4.54,3.85c-3.49,0-4.82-2.27-5-3.63Z"/>
    <path d="M745,441.67h2.5v2.55H745v5.58c0,1.07.47,1.51,1.53,1.51a5.46,5.46,0,0,0,1-.1v2.38a4.61,4.61,0,0,1-1.75.27,3.32,3.32,0,0,1-3.61-3.59v-6H739.9v-2.55h.62a1.7,1.7,0,0,0,1.85-1.88V438H745Z"/>
    <path d="M765.58,441.13a3.23,3.23,0,0,0-3.43-2.7,2.78,2.78,0,0,0-3,2.53,2.26,2.26,0,0,0,2,2.24l2.52.52c3.09.62,4.75,2.58,4.75,5,0,2.72-2.2,5.31-6.2,5.31-4.45,0-6.51-2.87-6.78-5.39l2.77-.79a3.76,3.76,0,0,0,4,3.51c2.1,0,3.18-1.06,3.18-2.42,0-1.14-.84-2.05-2.34-2.37l-2.48-.52c-2.67-.55-4.45-2.3-4.45-4.92,0-2.94,2.7-5.37,6-5.37,4.13,0,5.74,2.53,6.13,4.48Z"/>
    <path d="M772.63,435.57a1.88,1.88,0,0,1,1.87,1.88,1.87,1.87,0,1,1-1.87-1.88Zm-1.41,18.14v-12h2.84v12Z"/>
    <path d="M788.89,451.51a21.5,21.5,0,0,0,.12,2.2h-2.74a12,12,0,0,1-.12-1.56,4,4,0,0,1-3.54,1.86c-3.46,0-5.78-2.72-5.78-6.36,0-3.46,2.35-6.3,5.73-6.3,2.1,0,3.17,1,3.54,1.73v-7.27h2.79Zm-6,0c1.88,0,3.19-1.56,3.19-3.86s-1.28-3.73-3.16-3.73-3.27,1.46-3.27,3.75S781,451.49,782.93,451.49Z"/>
    <path d="M803.3,450.27a5.42,5.42,0,0,1-5.44,3.81,6.4,6.4,0,0,1-.3-12.78c3.71,0,5.89,2.45,5.89,6.26a3.7,3.7,0,0,1-.08.91h-8.8a3.23,3.23,0,0,0,3.29,3.14,2.92,2.92,0,0,0,3-2.1Zm-2.74-3.9a2.7,2.7,0,0,0-3-2.67,2.88,2.88,0,0,0-2.94,2.67Z"/>
  </g>
  <rect id = 'hover_zone_upper-west' class="nymap_hover_zone cls-1" x="143.91" y="207.36" width="256.12" height="331.77"/>
  <g id = 'text_upper-west'>
    <path d="M227,354.41h11.52a51.37,51.37,0,0,0,5.4-.24V359a43.65,43.65,0,0,0-5.32-.28h-25.4a50,50,0,0,0-5.52.28v-4.8a52.78,52.78,0,0,0,5.52.24h9.12V328.58A34.24,34.24,0,0,0,222,324h5.24a32.28,32.28,0,0,0-.28,4.6v6.84h9.4a40.74,40.74,0,0,0,4.64-.24v4.76a41.77,41.77,0,0,0-4.64-.24H227Z"/>
    <path d="M252.2,329.54a41.77,41.77,0,0,0-4.64.24v-4.56a38.37,38.37,0,0,0,4.72.24h26.8a37.66,37.66,0,0,0,4.68-.24v4.56a42.29,42.29,0,0,0-4.64-.24h-8V334h6a38.71,38.71,0,0,0,4.68-.2,44.22,44.22,0,0,0-.2,4.84v16.19a40.21,40.21,0,0,0,.24,5.12h-4.48v-2.32H254V360h-4.48a44.11,44.11,0,0,0,.24-5.16V338.66a47.82,47.82,0,0,0-.24-4.84,37.52,37.52,0,0,0,4.68.2h5.48v-4.48Zm11.36,8.56c-.24,3.76-.72,5.72-1.76,7.76s-2.16,3.2-4.8,5a12.36,12.36,0,0,0-3-2.92v5.55h23.4V342.94s0,0-.08.68a9.42,9.42,0,0,1-.52,3c-.6,1.4-1.84,1.92-4.72,1.92-3.88,0-4.84-.68-4.84-3.48v-7Zm-9.6,0v9.64a9.84,9.84,0,0,0,3.68-3.08c1.12-1.56,1.6-3.36,1.84-6.56Zm9.76-6.36V334h3.48v-4.48h-3.48Zm7.44,12c0,.76.16.84,1.36.84,1.52,0,1.56-.12,1.56-3.24a8.47,8.47,0,0,0,3.28,1V338.1h-6.2Z"/>
    <path d="M318.24,354.89a34.94,34.94,0,0,0,4.92-.2v4.16a37.67,37.67,0,0,0-4.88-.24H293.52v1.68H289a41.59,41.59,0,0,0,.24-5V329.14c0-2-.08-3.2-.16-4.48a36.81,36.81,0,0,0,4.88.2h23.56a39.64,39.64,0,0,0,5-.24v4.16a38.65,38.65,0,0,0-4.92-.2H293.52v26.31Zm-10.72-5.31a23.31,23.31,0,0,0,.12,3.28,31,31,0,0,0-3.72-.17h-4.76a29.8,29.8,0,0,0-3.68.17c.08-1,.12-1.64.12-3.28V345.3c0-1.56,0-2.28-.12-3.24a18.6,18.6,0,0,0,2.92.16h6.28a26,26,0,0,0,3-.12,25.92,25.92,0,0,0-.12,3.4Zm-8.12-4v3.76h4.4v-3.76Zm.44-12a22.5,22.5,0,0,0-.16-3c1.12.08,2,.12,3.56.12h10.28c1.72,0,2.64,0,3.52-.12-.08.88-.12,1.72-.12,3v3.6a23.88,23.88,0,0,0,.12,3.2c-1.28-.08-2.28-.12-4.16-.12h-9c-1.84,0-2.92,0-4.2.12a24,24,0,0,0,.16-3.16Zm4,.44v2.84h9.12V334Zm17.92,15.56c0,1.44,0,2.4.12,3.28a30.53,30.53,0,0,0-3.72-.17h-4.8a29.8,29.8,0,0,0-3.68.17c.08-.92.12-1.68.12-3.28V345.3c0-1.48,0-2.12-.12-3.2a28.16,28.16,0,0,0,2.92.12h6.32a19.5,19.5,0,0,0,3-.16c-.08,1-.12,2-.12,3.44Zm-8.24-4v3.76h4.44v-3.76Z"/>
    <path d="M172.75,391V379.53h2.94v11.25c0,2.47,1.36,3.83,3.59,3.83s3.58-1.36,3.58-3.83V379.53h3V391c0,4.23-2.87,6.47-6.55,6.47S172.75,395.18,172.75,391Z"/>
    <path d="M189.46,401.75V385h2.77v1.63a4.31,4.31,0,0,1,3.83-1.91c3.56,0,5.56,2.72,5.56,6.28s-2.2,6.33-5.66,6.33a4.34,4.34,0,0,1-3.66-1.66v6.06Zm6-14.46c-1.87,0-3.23,1.48-3.23,3.73s1.36,3.78,3.23,3.78,3.24-1.48,3.24-3.78S197.44,387.29,195.51,387.29Z"/>
    <path d="M204.39,401.75V385h2.76v1.63a4.34,4.34,0,0,1,3.84-1.91c3.56,0,5.56,2.72,5.56,6.28s-2.2,6.33-5.66,6.33a4.34,4.34,0,0,1-3.66-1.66v6.06Zm6.05-14.46c-1.88,0-3.24,1.48-3.24,3.73s1.36,3.78,3.24,3.78,3.24-1.48,3.24-3.78S212.37,387.29,210.44,387.29Z"/>
    <path d="M230,393.62a5.42,5.42,0,0,1-5.44,3.8,6.4,6.4,0,0,1-.3-12.77c3.71,0,5.89,2.44,5.89,6.25a3.7,3.7,0,0,1-.08.91h-8.8a3.23,3.23,0,0,0,3.29,3.14,2.91,2.91,0,0,0,3-2.1Zm-2.75-3.91a2.69,2.69,0,0,0-3-2.67,2.88,2.88,0,0,0-2.94,2.67Z"/>
    <path d="M239.9,387.86a6.17,6.17,0,0,0-.94-.08c-2.22,0-3.24,1.29-3.24,3.54v5.73h-2.86V385h2.79v1.92a3.64,3.64,0,0,1,3.49-2.07,4.63,4.63,0,0,1,.76.07Z"/>
    <path d="M268.28,379.53h3.06l-4.92,17.52h-3.06l-4.25-13.25-4.26,13.25h-3l-5-17.52H250l3.51,12.8,4.1-12.8h3.09l4.18,12.9Z"/>
    <path d="M283.25,393.62a5.41,5.41,0,0,1-5.43,3.8,6.4,6.4,0,0,1-.3-12.77c3.71,0,5.88,2.44,5.88,6.25a4.71,4.71,0,0,1-.07.91h-8.8a3.22,3.22,0,0,0,3.29,3.14,2.89,2.89,0,0,0,3-2.1Zm-2.74-3.91a2.7,2.7,0,0,0-3-2.67,2.9,2.9,0,0,0-2.94,2.67Z"/>
    <path d="M287.58,393.1a2.25,2.25,0,0,0,2.44,2c1.19,0,1.81-.64,1.81-1.38s-.45-1.14-1.41-1.34l-1.78-.39c-2.13-.47-3.24-1.86-3.24-3.51a4.17,4.17,0,0,1,4.43-3.88c3.36,0,4.45,2.17,4.64,3.36l-2.42.69a2.07,2.07,0,0,0-2.22-1.81,1.57,1.57,0,0,0-1.73,1.39,1.32,1.32,0,0,0,1.21,1.26l1.83.37c2.27.49,3.46,1.88,3.46,3.66s-1.49,3.85-4.55,3.85c-3.49,0-4.82-2.27-5-3.63Z"/>
    <path d="M301.07,385h2.5v2.54h-2.5v5.59c0,1.06.47,1.51,1.53,1.51a6.58,6.58,0,0,0,1-.1v2.37a4.35,4.35,0,0,1-1.75.27,3.31,3.31,0,0,1-3.61-3.58v-6.06H296V385h.61a1.71,1.71,0,0,0,1.86-1.88v-1.81h2.59Z"/>
    <path d="M321.69,384.47a3.24,3.24,0,0,0-3.44-2.69,2.77,2.77,0,0,0-3,2.52,2.28,2.28,0,0,0,2.06,2.25l2.52.52c3.09.62,4.74,2.57,4.74,5,0,2.72-2.2,5.31-6.2,5.31-4.45,0-6.5-2.86-6.77-5.38l2.76-.79a3.78,3.78,0,0,0,4,3.51c2.1,0,3.19-1.07,3.19-2.43,0-1.13-.84-2.05-2.35-2.37l-2.47-.52c-2.67-.54-4.45-2.3-4.45-4.92,0-2.94,2.69-5.36,6-5.36,4.13,0,5.74,2.52,6.13,4.47Z"/>
    <path d="M328.73,378.91a1.88,1.88,0,0,1,1.88,1.88,1.87,1.87,0,0,1-3.74,0A1.88,1.88,0,0,1,328.73,378.91Zm-1.41,18.14V385h2.84v12Z"/>
    <path d="M345,394.85a17.7,17.7,0,0,0,.13,2.2h-2.75a11.94,11.94,0,0,1-.12-1.55,4,4,0,0,1-3.54,1.85c-3.46,0-5.78-2.72-5.78-6.35,0-3.46,2.35-6.31,5.73-6.31,2.11,0,3.17,1,3.54,1.73v-7.26H345Zm-5.95,0c1.87,0,3.18-1.56,3.18-3.86s-1.28-3.73-3.16-3.73-3.26,1.46-3.26,3.76S337.08,394.83,339,394.83Z"/>
    <path d="M359.4,393.62a5.41,5.41,0,0,1-5.44,3.8,6.4,6.4,0,0,1-.29-12.77c3.7,0,5.88,2.44,5.88,6.25a4.71,4.71,0,0,1-.07.91h-8.8A3.21,3.21,0,0,0,354,395a2.91,2.91,0,0,0,3-2.1Zm-2.74-3.91a2.7,2.7,0,0,0-3-2.67,2.9,2.9,0,0,0-2.94,2.67Z"/>
  </g>
  <!-- midtown shape -->
  <polygon id = 'hover_zone_midtown' class="nymap_hover_zone cls-1" points="817.61 822.22 817.61 539.13 143.91 539.13 143.91 668.89 261.36 930.08 866.31 930.08 866.31 900.42 817.61 822.22"/>
  <!-- midtown text -->
  <g id = 'text_midtown'>
    <path d="M472,692a25.93,25.93,0,0,0-.24-4.36h5a29.33,29.33,0,0,0-.24,4.2v2.6h10.95a28.61,28.61,0,0,0,3.64-.16,29.37,29.37,0,0,0-.16,3.52V710a27.53,27.53,0,0,0,.2,4h-4.72v-2.4h-9.91v8.12a31.24,31.24,0,0,0,.28,5H471.7a33.3,33.3,0,0,0,.28-5v-8.12h-9.44V714h-4.72a30,30,0,0,0,.2-4V697.72a31.31,31.31,0,0,0-.16-3.48,30.82,30.82,0,0,0,3.6.16H472Zm-9.44,6.68v8.68H472v-8.68Zm23.91,8.68v-8.68h-9.91v8.68Z"/>
    <path d="M499.62,692.68a31.54,31.54,0,0,0-.24-4.44h4.56a27.23,27.23,0,0,0-.24,4.48v5.36a27.27,27.27,0,0,0,3-.12v4.16c-.88-.08-1.72-.16-2.76-.16h-.24V711c1.12-.6,1.44-.8,2.68-1.56v4.32a60,60,0,0,1-8.2,4.36c-.2.08-.76.36-1.68.8l-1.08-4.56a24.62,24.62,0,0,0,4.2-1.48V702H499a21.54,21.54,0,0,0-3,.2v-4.24a23,23,0,0,0,3,.16h.6Zm24.31,4.88a66.38,66.38,0,0,0,1.36,10.88,34.6,34.6,0,0,0,2.4-8l4.28,1.4c-.36.88-.8,2-1.32,3.56a41.59,41.59,0,0,1-3.84,8.44c.84,2.24,2.36,5.28,2.64,5.28s.48-1.4.92-5.36a15.18,15.18,0,0,0,3.08,2.68c-.36,3.08-.76,4.8-1.44,6.08a2.67,2.67,0,0,1-2.24,1.68c-1.84,0-3.92-2.32-5.72-6.44a30.09,30.09,0,0,1-7.47,6.39,9.53,9.53,0,0,0-3-3.39,23.47,23.47,0,0,0,8.91-7.36,65.75,65.75,0,0,1-2.6-15.88H512.1v4.28h4.08a24.13,24.13,0,0,0,3.19-.16c0,.36,0,.36,0,1.08,0,0,0,.32,0,.76,0,1.88-.32,7.16-.48,8.64-.55,5.16-1.32,6.12-4.83,6.12-.64,0-1.52,0-2.44-.12a11.59,11.59,0,0,0-.64-3.76,22.41,22.41,0,0,1-4.72,10.08,10.33,10.33,0,0,0-3.52-2.88,16.21,16.21,0,0,0,3.4-5.28c1.36-3.56,2-9,2-17.52a39.9,39.9,0,0,0-.2-5.48,26.85,26.85,0,0,0,4,.24h7.87c-.08-1.28-.08-1.48-.08-3.08a19.43,19.43,0,0,0-.2-2.44h4.48a22.84,22.84,0,0,0-.2,3.24c0,.76,0,1.16,0,2.28h4.72a18.17,18.17,0,0,0-4.2-3.56l2.64-2.16a21.75,21.75,0,0,1,4.28,3.52l-2.4,2.2a20.53,20.53,0,0,0,2.92-.24v4.44c-1.32-.12-3.16-.2-4.64-.2Zm-12,8.2a52.11,52.11,0,0,1-1,8.32c.6.08,2.08.24,2.44.24.84,0,1.2-.16,1.32-.64a39.31,39.31,0,0,0,.68-7.92Z"/>
    <path d="M444.35,761.28V748.37l-5.46,12.91h-2.57l-5.41-12.86v12.86H428V743.75h4l5.69,13.37,5.61-13.37h4v17.53Z"/>
    <path d="M452.66,743.13a1.88,1.88,0,0,1,1.88,1.88,1.87,1.87,0,1,1-1.88-1.88Zm-1.41,18.15v-12h2.84v12Z"/>
    <path d="M468.92,759.08a21.72,21.72,0,0,0,.12,2.2H466.3a12.26,12.26,0,0,1-.12-1.56,4,4,0,0,1-3.54,1.85c-3.46,0-5.78-2.72-5.78-6.35,0-3.46,2.35-6.3,5.73-6.3,2.1,0,3.17,1,3.54,1.73v-7.27h2.79Zm-6,0c1.88,0,3.19-1.56,3.19-3.86s-1.28-3.73-3.16-3.73-3.27,1.46-3.27,3.76S461,759.05,463,759.05Z"/>
    <path d="M483.8,759.08a21.72,21.72,0,0,0,.12,2.2h-2.74a12.26,12.26,0,0,1-.12-1.56,4,4,0,0,1-3.54,1.85c-3.46,0-5.78-2.72-5.78-6.35,0-3.46,2.34-6.3,5.73-6.3,2.1,0,3.17,1,3.54,1.73v-7.27h2.79Zm-6,0c1.88,0,3.19-1.56,3.19-3.86s-1.28-3.73-3.16-3.73-3.27,1.46-3.27,3.76S475.89,759.05,477.84,759.05Z"/>
    <path d="M487.55,761.28v-17.9h2.87v17.9Z"/>
    <path d="M504.78,757.84a5.42,5.42,0,0,1-5.44,3.81,6.4,6.4,0,0,1-.29-12.78c3.71,0,5.88,2.44,5.88,6.25a4.61,4.61,0,0,1-.07.91h-8.8a3.21,3.21,0,0,0,3.28,3.14,2.91,2.91,0,0,0,3-2.1ZM502,753.93a2.7,2.7,0,0,0-3-2.67,2.9,2.9,0,0,0-2.94,2.67Z"/>
    <path d="M511.31,749.24h2.49v2.54h-2.49v5.59c0,1.06.47,1.51,1.53,1.51a6.91,6.91,0,0,0,1-.1v2.37a4.47,4.47,0,0,1-1.76.27,3.32,3.32,0,0,1-3.61-3.58v-6.06h-2.22v-2.54h.62a1.71,1.71,0,0,0,1.85-1.88v-1.81h2.6Z"/>
    <path d="M528.16,755.24a6.24,6.24,0,1,1-6.25-6.37A6.13,6.13,0,0,1,528.16,755.24Zm-2.89,0c0-2.49-1.58-3.78-3.36-3.78s-3.36,1.29-3.36,3.78,1.6,3.84,3.36,3.84S525.27,757.77,525.27,755.24Z"/>
    <path d="M540.42,749.24l2.84,8.33,2.4-8.33h2.92l-3.86,12h-2.86l-3-8.66L536,761.28H533l-3.91-12h3.07l2.44,8.33,2.85-8.33Z"/>
    <path d="M553.62,761.28h-2.87v-12h2.79v1.6a4,4,0,0,1,3.56-2c2.95,0,4.35,2.13,4.35,4.77v7.62h-2.86v-7.12c0-1.49-.67-2.67-2.47-2.67-1.64,0-2.5,1.26-2.5,2.84Z"/>
  </g>
  <!-- lower shape -->
  <polygon id = 'hover_zone_lower' class="nymap_hover_zone cls-1" points="494.58 1399.93 715.12 1399.93 768.84 1346.21 768.84 1234.82 866.3 1137.35 866.31 930.08 261.36 930.08 454.69 1360.04 494.58 1399.93"/>
  <!-- lower text -->
  <g id = 'text_lower'>
    <path d="M553.12,1068.77c-2,0-3.76.08-5.36.24v-4.68a51.09,51.09,0,0,0,5.36.24h25.11a52.73,52.73,0,0,0,5.36-.24V1069c-1.68-.16-3.32-.24-5.36-.24H567v4.68a100.62,100.62,0,0,1,14.35,7.35l-2.28,4A79,79,0,0,0,567,1078v15.64a40,40,0,0,0,.28,5.52H562a39.6,39.6,0,0,0,.28-5.52v-24.83Z"/>
    <path d="M591.12,1067.57a31.54,31.54,0,0,0-.24-4.44h4.56a27.23,27.23,0,0,0-.24,4.48V1073c1.36,0,2.32,0,3-.11V1077a25.55,25.55,0,0,0-2.76-.17h-.24v9.08c1.12-.6,1.44-.8,2.68-1.56v4.32a60,60,0,0,1-8.2,4.36c-.2.08-.76.36-1.68.8l-1.08-4.56a24.62,24.62,0,0,0,4.2-1.48v-11h-.64a20,20,0,0,0-3,.21v-4.24a25.06,25.06,0,0,0,3,.15h.6Zm24.31,4.88a68.65,68.65,0,0,0,1.36,10.87,34.68,34.68,0,0,0,2.4-8l4.28,1.39c-.36.88-.8,2-1.32,3.56a41.59,41.59,0,0,1-3.84,8.44c.84,2.24,2.36,5.28,2.64,5.28s.48-1.4.92-5.36a15.18,15.18,0,0,0,3.08,2.68c-.36,3.08-.76,4.8-1.44,6.08a2.65,2.65,0,0,1-2.24,1.68c-1.84,0-3.92-2.32-5.71-6.44a30.21,30.21,0,0,1-7.48,6.4,9.47,9.47,0,0,0-3-3.4,23.5,23.5,0,0,0,8.92-7.36,65.74,65.74,0,0,1-2.6-15.87h-7.8v4.27h4.08a24.29,24.29,0,0,0,3.2-.16c0,.36,0,.36,0,1.08,0,0,0,.32,0,.76,0,1.88-.32,7.16-.48,8.64-.56,5.16-1.32,6.12-4.84,6.12-.64,0-1.52,0-2.44-.12a11.59,11.59,0,0,0-.64-3.76,22.41,22.41,0,0,1-4.72,10.08,10.33,10.33,0,0,0-3.52-2.88,16.21,16.21,0,0,0,3.4-5.28c1.36-3.56,2-9,2-17.51a39.9,39.9,0,0,0-.2-5.48,26.85,26.85,0,0,0,4,.24h7.88c-.08-1.28-.08-1.48-.08-3.08a24.08,24.08,0,0,0-.2-2.44h4.47a24.71,24.71,0,0,0-.19,3.24c0,.76,0,1.16,0,2.28H620a18.33,18.33,0,0,0-4.19-3.56l2.63-2.16a21.75,21.75,0,0,1,4.28,3.52l-2.4,2.2a20.53,20.53,0,0,0,2.92-.24v4.44c-1.32-.12-3.16-.2-4.64-.2Zm-12,8.19a52.11,52.11,0,0,1-1,8.32c.6.08,2.08.24,2.44.24.84,0,1.2-.16,1.32-.64a39.31,39.31,0,0,0,.68-7.92Z"/>
    <path d="M487.8,1136.16v-17.52h3v14.7h8v2.82Z"/>
    <path d="M512.76,1130.13a6.24,6.24,0,1,1-6.25-6.38A6.12,6.12,0,0,1,512.76,1130.13Zm-2.89,0c0-2.5-1.58-3.78-3.36-3.78s-3.36,1.28-3.36,3.78,1.6,3.83,3.36,3.83S509.87,1132.65,509.87,1130.13Z"/>
    <path d="M525,1124.12l2.84,8.33,2.4-8.33h2.92l-3.86,12h-2.87l-3-8.65-2.91,8.65h-2.94l-3.91-12h3.06l2.45,8.33,2.84-8.33Z"/>
    <path d="M545.71,1132.73a5.42,5.42,0,0,1-5.44,3.8,6.4,6.4,0,0,1-.3-12.78c3.71,0,5.89,2.45,5.89,6.26a3.7,3.7,0,0,1-.08.91H537a3.23,3.23,0,0,0,3.29,3.14,2.91,2.91,0,0,0,3-2.1Zm-2.75-3.91a2.69,2.69,0,0,0-3-2.67,2.88,2.88,0,0,0-2.94,2.67Z"/>
    <path d="M555.64,1127a6.17,6.17,0,0,0-.94-.08c-2.22,0-3.23,1.29-3.23,3.54v5.73H548.6v-12h2.79v1.93a3.64,3.64,0,0,1,3.49-2.08,3.53,3.53,0,0,1,.76.08Z"/>
    <path d="M580.71,1136.16v-12.9l-5.47,12.9h-2.57l-5.41-12.85v12.85h-2.89v-17.52h4L574,1132l5.61-13.37h4v17.52Z"/>
    <path d="M590.42,1129.26l3.09-.46c.69-.1.89-.45.89-.87,0-1-.7-1.83-2.28-1.83a2.32,2.32,0,0,0-2.47,2.18l-2.62-.6c.22-2.07,2.1-3.93,5.07-3.93,3.71,0,5.12,2.1,5.12,4.5v6a11.93,11.93,0,0,0,.14,1.93h-2.67a7.15,7.15,0,0,1-.12-1.53,4.21,4.21,0,0,1-3.71,1.9,3.78,3.78,0,0,1-4.08-3.63C586.78,1130.75,588.37,1129.56,590.42,1129.26Zm4,1.91v-.55l-3.14.47a1.67,1.67,0,0,0-1.61,1.64,1.59,1.59,0,0,0,1.76,1.55C593,1134.28,594.4,1133.52,594.4,1131.17Z"/>
    <path d="M603.54,1136.16h-2.87v-12h2.8v1.61a4,4,0,0,1,3.56-2c2.94,0,4.35,2.12,4.35,4.77v7.61h-2.87V1129c0-1.48-.67-2.67-2.47-2.67-1.63,0-2.5,1.26-2.5,2.84Z"/>
    <path d="M617.73,1136.16h-2.87v-17.9h2.87v7a4.25,4.25,0,0,1,3.43-1.51c3,0,4.4,2.12,4.4,4.77v7.61H622.7V1129c0-1.48-.67-2.67-2.48-2.67a2.5,2.5,0,0,0-2.49,2.72Z"/>
    <path d="M631.94,1129.26l3.09-.46c.69-.1.89-.45.89-.87,0-1-.69-1.83-2.28-1.83a2.32,2.32,0,0,0-2.47,2.18l-2.62-.6c.22-2.07,2.1-3.93,5.07-3.93,3.71,0,5.12,2.1,5.12,4.5v6a10.25,10.25,0,0,0,.15,1.93h-2.67a6.1,6.1,0,0,1-.13-1.53,4.21,4.21,0,0,1-3.71,1.9,3.77,3.77,0,0,1-4.07-3.63C628.31,1130.75,629.89,1129.56,631.94,1129.26Zm4,1.91v-.55l-3.14.47a1.67,1.67,0,0,0-1.61,1.64,1.59,1.59,0,0,0,1.76,1.55C634.53,1134.28,635.92,1133.52,635.92,1131.17Z"/>
    <path d="M645.78,1124.12h2.5v2.55h-2.5v5.59c0,1.06.47,1.5,1.53,1.5a7,7,0,0,0,1-.09V1136a4.61,4.61,0,0,1-1.75.27,3.32,3.32,0,0,1-3.61-3.58v-6.06h-2.23v-2.55h.62a1.7,1.7,0,0,0,1.85-1.88v-1.8h2.6Z"/>
    <path d="M654.8,1124.12h2.5v2.55h-2.5v5.59c0,1.06.47,1.5,1.53,1.5a7,7,0,0,0,1-.09V1136a4.56,4.56,0,0,1-1.75.27,3.32,3.32,0,0,1-3.61-3.58v-6.06h-2.23v-2.55h.62a1.71,1.71,0,0,0,1.86-1.88v-1.8h2.59Z"/>
    <path d="M663.15,1129.26l3.09-.46c.7-.1.89-.45.89-.87,0-1-.69-1.83-2.27-1.83a2.31,2.31,0,0,0-2.47,2.18l-2.62-.6c.22-2.07,2.1-3.93,5.07-3.93,3.7,0,5.11,2.1,5.11,4.5v6a11.32,11.32,0,0,0,.15,1.93h-2.67a7.15,7.15,0,0,1-.12-1.53,4.22,4.22,0,0,1-3.71,1.9,3.78,3.78,0,0,1-4.08-3.63C659.52,1130.75,661.1,1129.56,663.15,1129.26Zm4,1.91v-.55l-3.14.47a1.66,1.66,0,0,0-1.6,1.64,1.59,1.59,0,0,0,1.75,1.55C665.75,1134.28,667.13,1133.52,667.13,1131.17Z"/>
    <path d="M676.28,1136.16h-2.87v-12h2.79v1.61a4,4,0,0,1,3.56-2c3,0,4.35,2.12,4.35,4.77v7.61h-2.86V1129c0-1.48-.67-2.67-2.48-2.67-1.63,0-2.49,1.26-2.49,2.84Z"/>
  </g>
  <!-- brooklyn shape -->
  <polygon id = 'hover_zone_brooklyn' class="nymap_hover_zone cls-1" points="863.68 765.57 863.68 806.7 930.79 873.81 930.79 1179.35 837.5 1272.64 837.5 1495.88 1381.88 1495.88 1381.88 756.75 1133.74 756.75 1133.68 765.57 863.68 765.57"/>
  <!-- brooklyn text -->
  <g id = 'text_brooklyn'>
    <path d="M1081.76,1082.48v9.72a31.17,31.17,0,0,0,.21,4.52h-4.8a35.34,35.34,0,0,0,.24-4.52v-8.28a49.3,49.3,0,0,1-5.4,4.48,15.7,15.7,0,0,0-2.28-4.08,33.77,33.77,0,0,0,11.72-12.43h-5.84a43.83,43.83,0,0,0-5.12.24v-4.52a38.93,38.93,0,0,0,5.12.24h7.72a21.4,21.4,0,0,0,1.43-5.48l5,.52a17.67,17.67,0,0,0-.76,2c-.32.92-.6,1.72-1,2.92h13.88a37.66,37.66,0,0,0,5-.24v4.52a38.93,38.93,0,0,0-5-.24h-15.6a40.48,40.48,0,0,1-4.11,6.71h6v-.24a34,34,0,0,0-.2-4.63h4.8a26.4,26.4,0,0,0-.24,4.63v.24h7.8a25.65,25.65,0,0,0,3.76-.2,29.51,29.51,0,0,0-.16,3.48v10c0,2.08-.52,3.12-1.84,3.68a9.86,9.86,0,0,1-4.36.6c-.52,0-1.24,0-2.48-.12a11.05,11.05,0,0,0-1.28-4.24,28.5,28.5,0,0,0,3.76.36c1.44,0,1.84-.28,1.84-1.24v-8.4h-7v12.36a28,28,0,0,0,.28,4.76h-4.88a35.2,35.2,0,0,0,.24-4.76v-12.36Z"/>
    <path d="M1140,1069.21c1.4,0,2.28,0,3.24-.12a30.71,30.71,0,0,0-.12,3.24v5.91a22.9,22.9,0,0,0,.12,3.12,5.52,5.52,0,0,0-1-.08,44.36,44.36,0,0,1,4.8,4.6l-3.68,2.68c-.68-.92-.76-1-1.52-1.92-.08.84-.12,1.76-.12,3.4v5.8a16.71,16.71,0,0,0,.24,3.68h-4.48v-1.44h-17.11v1.4H1116a20.3,20.3,0,0,0,.24-3.56V1090a27.69,27.69,0,0,0-.12-3.32,20.35,20.35,0,0,1-2.28,2.2l-3.52-2.84a18.12,18.12,0,0,0,5-4.76c-.24,0-.4,0-.72.08a24,24,0,0,0,.16-3.16v-5.35c-.72.44-1,.56-1.84,1a10.25,10.25,0,0,0-2.6-3.07,30.09,30.09,0,0,0,8.16-5.24,15,15,0,0,0,3.32-3.8l4.67.8c-.28.28-.8.84-1.56,1.76h6.72a19.18,19.18,0,0,0,3.8-.2l2.36,1.84-1.6,1.6c-.4.4-1,1-1.76,1.6Zm-22.43,12h-.8l2.52,1.48a29.43,29.43,0,0,1-3,3.76c.92,0,1.8.08,3.64.08h18.11a33.33,33.33,0,0,0,3.6-.12,34.64,34.64,0,0,0-3.84-3.84l2.32-1.36Zm1.24-7.47h7.83v-1.56h-7.83Zm0,4.43h7.83v-1.6h-7.83Zm10.63-9c.6-.56,1.08-1.08,1.72-1.8h-9.08c-.71.64-1.43,1.24-2.11,1.8Zm-9.07,21.67h17v-1.4h-17Zm0,4.12h17v-1.44h-17Zm2.19-8.84a22.06,22.06,0,0,0-.63-4l4.15-.36a25.44,25.44,0,0,1,.84,4Zm9-.12a18,18,0,0,0-1.28-3.84l4.2-.52a19.82,19.82,0,0,1,1.44,3.68Zm-1-12.27H1139v-1.56h-8.44Zm0,4.43H1139v-1.6h-8.44Z"/>
    <path d="M1166,1066.13a19.78,19.78,0,0,0-.24-3.64h5a17.18,17.18,0,0,0-.24,3.64v.52h10.88a37.13,37.13,0,0,0,4.8-.24V1071a42.2,42.2,0,0,0-4.8-.24h-10.88v3.15h8.12c1.44,0,2.28,0,3.24-.11a26.64,26.64,0,0,0-.16,3.4v5.91a21.68,21.68,0,0,0,.2,3.36c-.92-.08-1.64-.12-3.08-.12h-4.4v7.2c0,1.08.28,1.2,3.32,1.2s4-.16,4.28-.84a19.74,19.74,0,0,0,.52-5.12,11.34,11.34,0,0,0,4.4,1.36c-.24,4.44-.68,6.48-1.68,7.44s-2.76,1.32-7.48,1.32c-7.12,0-7.84-.4-7.84-4v-8.52h-3.72a13.36,13.36,0,0,1-3.24,7.92c-2.19,2.44-5.27,4.08-10.15,5.4a15.75,15.75,0,0,0-2.48-4.28c4.32-.84,6.72-1.8,8.6-3.48a8.67,8.67,0,0,0,2.8-5.56h-3.56c-1.28,0-2.08,0-3,.12a32.57,32.57,0,0,0,.2-3.48v-5.83a24.12,24.12,0,0,0-.2-3.36c1,.07,1.8.11,3.24.11H1166v-3.15h-10.15a37.47,37.47,0,0,0-4.72.24v-4.56a35.34,35.34,0,0,0,4.72.24H1166Zm-6,16.27h17.23v-4.64H1160Z"/>
    <path d="M1201.89,1073.92a26.69,26.69,0,0,0,2.67,4.56,16.48,16.48,0,0,0,3.28,3.76,9.77,9.77,0,0,0-2.8,3.2,25.51,25.51,0,0,1-3.63-6.52,55.12,55.12,0,0,1,.2,5.52v10.12a39.41,39.41,0,0,0,.24,4.88h-4.68a36.8,36.8,0,0,0,.28-4.88v-8.92c0-1.36.12-4.12.28-5.4a32.61,32.61,0,0,1-2.64,6.32,23.68,23.68,0,0,1-2.76,4.2,15.2,15.2,0,0,0-2.64-4,33.74,33.74,0,0,0,7.24-12.88h-1.6a32,32,0,0,0-4.36.25v-4.48a30.77,30.77,0,0,0,4.44.24h2v-3.48a24.74,24.74,0,0,0-.24-3.84h4.64a26,26,0,0,0-.2,3.76v3.56H1203a34.86,34.86,0,0,0,3.84-.2v4.4c-1.24-.12-2.44-.21-3.8-.21Zm20.11-4a34.41,34.41,0,0,0,4.64-.24v4.48a34.67,34.67,0,0,0-4.52-.25H1219a42.81,42.81,0,0,0,3.44,7.4,27.52,27.52,0,0,0,5.6,7,15.2,15.2,0,0,0-3.12,3.84,48.52,48.52,0,0,1-3.68-5.28A41.41,41.41,0,0,1,1218,1080c.2,1.84.32,3.4.32,4.44v10.4a30.45,30.45,0,0,0,.28,4.6h-4.76a40.6,40.6,0,0,0,.28-4.6v-9.68c0-1.24.12-3.32.24-4.72-2,5.68-4.56,9.92-7.6,12.84a12,12,0,0,0-2.88-3.6,27.61,27.61,0,0,0,6.88-9.24,34.28,34.28,0,0,0,2.72-6.52h-1.72c-1.4,0-2.68.09-3.92.21v-4.4a38.43,38.43,0,0,0,4,.2h2.4v-3.28a30.92,30.92,0,0,0-.24-4h4.68a23.8,23.8,0,0,0-.24,4v3.28Z"/>
    <path d="M1106.57,1118.64c3.37,0,5.34,2,5.34,4.72a3.9,3.9,0,0,1-2.59,3.78,4.2,4.2,0,0,1,3.14,4.18c0,2.81-2.18,4.84-5.44,4.84h-6.48v-17.52Zm-.39,7.41c1.73,0,2.77-1,2.77-2.45s-1-2.44-2.85-2.44h-2.62v4.89Zm.32,7.59c1.78,0,2.94-1,2.94-2.52a2.52,2.52,0,0,0-2.84-2.57h-3.12v5.09Z"/>
    <path d="M1122.27,1127a6.17,6.17,0,0,0-.94-.08c-2.23,0-3.24,1.29-3.24,3.54v5.73h-2.87v-12h2.8v1.93a3.92,3.92,0,0,1,4.25-2Z"/>
    <path d="M1136.08,1130.13a6.24,6.24,0,1,1-6.25-6.38A6.12,6.12,0,0,1,1136.08,1130.13Zm-2.89,0c0-2.5-1.58-3.78-3.36-3.78s-3.36,1.28-3.36,3.78,1.61,3.83,3.36,3.83S1133.19,1132.65,1133.19,1130.13Z"/>
    <path d="M1150.4,1130.13a6.25,6.25,0,1,1-6.26-6.38A6.13,6.13,0,0,1,1150.4,1130.13Zm-2.9,0c0-2.5-1.58-3.78-3.36-3.78s-3.36,1.28-3.36,3.78,1.61,3.83,3.36,3.83S1147.5,1132.65,1147.5,1130.13Z"/>
    <path d="M1159.49,1129.21l5,7H1161l-3.53-4.92-1.49,1.56v3.36h-2.84v-17.9H1156V1129l4.63-4.87h3.8Z"/>
    <path d="M1166.61,1136.16v-17.9h2.86v17.9Z"/>
    <path d="M1173.77,1141l2.9-6.3-5.15-10.61h3.24l3.46,7.62,3.24-7.62h3l-7.66,16.91Z"/>
    <path d="M1189.47,1136.16h-2.87v-12h2.79v1.61a4,4,0,0,1,3.56-2c3,0,4.35,2.12,4.35,4.77v7.61h-2.86V1129c0-1.48-.67-2.67-2.47-2.67-1.64,0-2.5,1.26-2.5,2.84Z"/>
  </g>
  
  <!-- LIC shape -->
  <polygon id = 'hover_zone_lic' class="nymap_hover_zone cls-1" points="863.68 509.15 1049.01 509.15 1049.01 575.61 985.8 638.82 985.8 749.07 863.68 749.07 863.68 509.15"/>
  <!-- LIC text -->
  <g id = 'text_lic'>
    <path d="M915.47,570.94c-.32.24-.8.68-2.28,2a26.56,26.56,0,0,1-3.84,2.76,35.29,35.29,0,0,0,10.48,3.56,19.55,19.55,0,0,0-2.12,4.6,34.62,34.62,0,0,1-14.4-7,21.27,21.27,0,0,1-6.12-7.92h-3.48v9.08a69.65,69.65,0,0,0,8-2.16l0,4a115.83,115.83,0,0,1-15.64,3.84c-1,.2-1.08.2-1.8.4l-.84-4.48a39.82,39.82,0,0,0,5.68-.72V569H887a25.16,25.16,0,0,0-4.08.24V564.9a24.46,24.46,0,0,0,4.16.25h2.08V552.51a31.14,31.14,0,0,0-.16-4,32.11,32.11,0,0,0,4.36.2h17.92a27.09,27.09,0,0,0,4.64-.24v4.24a32.82,32.82,0,0,0-4.6-.2H893.79v2h17a27.48,27.48,0,0,0,3.68-.2V558a34.62,34.62,0,0,0-3.68-.2h-17v2h17a26.62,26.62,0,0,0,3.68-.2v3.68a23.86,23.86,0,0,0-3.68-.2h-17v2.12h21.32a24,24,0,0,0,4-.25v4.32a23.18,23.18,0,0,0-3.6-.24h-3.76Zm-13.76-2a12.57,12.57,0,0,0,4.2,4.64,29.05,29.05,0,0,0,5.36-4.64Z"/>
    <path d="M934.15,573.42h-3.44c-1.48,0-2.16,0-3.2.08.08-1.2.16-2.28.16-4.12V553.91a32.5,32.5,0,0,0-.2-3.6,26.73,26.73,0,0,0,3.44.16h4.84a16.45,16.45,0,0,0,1.52-3.56l4.72.44a28.07,28.07,0,0,1-1.68,3.12h9a26,26,0,0,0,3.44-.16,22.88,22.88,0,0,0-.12,3.08V560c0,1.28,0,2.2.12,3.2-1.12-.08-2.12-.12-3.36-.12H931.87v1.83h23.32a23.94,23.94,0,0,0,3.76-.19v3.71a27.87,27.87,0,0,0-3.84-.2H931.87v1.88H955a19.75,19.75,0,0,0,3-.16c0,.36,0,.4-.08.8,0,.08,0,.28,0,.52l-.24,2.44a36.08,36.08,0,0,1-1.28,7.16,4.49,4.49,0,0,1-2.28,2.48,10.45,10.45,0,0,1-3.8.48c-.36,0-.88,0-1.8,0a12.35,12.35,0,0,0-.48-2.36l-2.28-.08c-.48,0-.92,0-1.76,0h-15v1.56h-4.36a20.16,20.16,0,0,0,.24-3.32v-2.76a15.45,15.45,0,0,0-.2-2.44H929a9.91,9.91,0,0,0-.12,2v1.24h5.24Zm14.12-18v-1.72h-16.4v1.72Zm-16.4,4.6h16.4v-1.8h-16.4Zm12,17.55v-1.28a15,15,0,0,0-.16-2h4.36a19.27,19.27,0,0,0-.12,2.44v3.08a24.27,24.27,0,0,0,2.84.2c1.12,0,1.52-.28,1.8-1.24a29.68,29.68,0,0,0,.8-5.32H938.31v4.12Z"/>
    <path d="M978.47,550.23a17.92,17.92,0,0,0-.24-3h5a13.16,13.16,0,0,0-.28,2.92v2h11.32a35.1,35.1,0,0,0,5-.28v4.56a30.64,30.64,0,0,0-4.92-.24H967.91a45.51,45.51,0,0,0-4.92.24v-4.56a37.39,37.39,0,0,0,5,.28h10.44Zm0,9.84a22.16,22.16,0,0,0-.16-2.92h4.8a15.31,15.31,0,0,0-.16,2.92v.48h9.28a35.11,35.11,0,0,0,3.92-.16,28.79,28.79,0,0,0-.16,3.44v11.79c0,3.6-1.16,4.52-5.84,4.52-.92,0-1.68,0-3.32-.16a14.33,14.33,0,0,0-1.08-4.28,27.61,27.61,0,0,0,3.92.4c1.64,0,2-.2,2-1.24V564.47H983V579.3a36.71,36.71,0,0,0,.28,4.92h-5a37.73,37.73,0,0,0,.28-4.88V564.47h-7.92v11.47a29.93,29.93,0,0,0,.24,4.72h-4.92a41.48,41.48,0,0,0,.24-4.68V563.83a32,32,0,0,0-.16-3.44,41.13,41.13,0,0,0,4.12.16h8.4Z"/>
    <path d="M883.21,620.9V603.38h3v14.7h8v2.82Z"/>
    <path d="M908.18,614.87a6.24,6.24,0,1,1-6.26-6.38A6.13,6.13,0,0,1,908.18,614.87Zm-2.89,0c0-2.5-1.59-3.78-3.37-3.78s-3.36,1.28-3.36,3.78,1.61,3.83,3.36,3.83S905.29,617.39,905.29,614.87Z"/>
    <path d="M913.81,620.9H911v-12h2.79v1.61a4,4,0,0,1,3.56-2c2.94,0,4.35,2.12,4.35,4.77v7.61h-2.87v-7.12c0-1.48-.67-2.67-2.47-2.67-1.63,0-2.5,1.26-2.5,2.85Z"/>
    <path d="M926.91,620.88a2.93,2.93,0,0,0,3,2.59c2.27,0,3.41-1.16,3.41-3.61V618.6a3.85,3.85,0,0,1-3.49,1.76,5.87,5.87,0,0,1,0-11.72,3.74,3.74,0,0,1,3.56,1.76v-1.54h2.77v10.91c0,3.21-1.66,6.2-6.18,6.2-3.19,0-5.41-2-5.73-4.4Zm6.5-6.38a3.13,3.13,0,1,0-3.09,3.41C932.15,617.91,933.41,616.58,933.41,614.5Z"/>
    <path d="M883.21,650.56V633h3v17.52Z"/>
    <path d="M891.62,646.61a2.25,2.25,0,0,0,2.44,2c1.19,0,1.81-.64,1.81-1.39s-.45-1.13-1.41-1.33l-1.78-.4c-2.13-.47-3.24-1.85-3.24-3.51a4.18,4.18,0,0,1,4.43-3.88c3.36,0,4.45,2.18,4.64,3.36l-2.42.7a2.07,2.07,0,0,0-2.22-1.81,1.56,1.56,0,0,0-1.73,1.39,1.32,1.32,0,0,0,1.21,1.26l1.83.37c2.27.49,3.46,1.88,3.46,3.66s-1.49,3.85-4.55,3.85c-3.49,0-4.82-2.27-5-3.63Z"/>
    <path d="M901.48,650.56v-17.9h2.87v17.9Z"/>
    <path d="M910.9,643.66l3.09-.47c.69-.09.89-.44.89-.86,0-1-.7-1.83-2.28-1.83a2.31,2.31,0,0,0-2.47,2.18l-2.62-.6c.22-2.07,2.1-3.93,5.07-3.93,3.7,0,5.11,2.1,5.11,4.5v6a11.32,11.32,0,0,0,.15,1.93h-2.67a7.15,7.15,0,0,1-.12-1.53,4.22,4.22,0,0,1-3.71,1.9,3.78,3.78,0,0,1-4.08-3.63C907.26,645.15,908.84,644,910.9,643.66Zm4,1.91V645l-3.14.47a1.67,1.67,0,0,0-1.61,1.64,1.59,1.59,0,0,0,1.75,1.55C913.49,648.68,914.88,647.92,914.88,645.57Z"/>
    <path d="M924,650.56h-2.87v-12H924v1.61a4,4,0,0,1,3.55-2c3,0,4.36,2.12,4.36,4.77v7.61H929v-7.12c0-1.48-.67-2.67-2.47-2.67-1.64,0-2.5,1.26-2.5,2.84Z"/>
    <path d="M946.46,648.36a17.87,17.87,0,0,0,.13,2.2h-2.75a12,12,0,0,1-.12-1.56,4,4,0,0,1-3.54,1.86c-3.46,0-5.78-2.72-5.78-6.35,0-3.47,2.35-6.31,5.73-6.31,2.11,0,3.17,1,3.54,1.73v-7.27h2.79Zm-6,0c1.88,0,3.19-1.56,3.19-3.86s-1.28-3.73-3.16-3.73-3.26,1.46-3.26,3.76S938.55,648.34,940.5,648.34Z"/>
    <path d="M882.15,671.47a8.79,8.79,0,0,1,8.83-9.15c4.45,0,7.09,2.62,7.88,5.69l-2.79.94a4.86,4.86,0,0,0-5.09-3.83c-2.9,0-5.79,2.1-5.79,6.35s2.82,6.28,5.81,6.28a5.24,5.24,0,0,0,5.22-3.86l2.72.89a7.88,7.88,0,0,1-7.94,5.81A8.68,8.68,0,0,1,882.15,671.47Z"/>
    <path d="M903.11,662.08A1.88,1.88,0,0,1,905,664a1.87,1.87,0,1,1-1.88-1.88Zm-1.41,18.14v-12h2.84v12Z"/>
    <path d="M911.89,668.18h2.49v2.55h-2.49v5.58c0,1.07.46,1.51,1.53,1.51a5.69,5.69,0,0,0,1-.1v2.38a4.68,4.68,0,0,1-1.76.27,3.33,3.33,0,0,1-3.61-3.59v-6h-2.22v-2.55h.62a1.71,1.71,0,0,0,1.85-1.88v-1.8h2.6Z"/>
    <path d="M918.11,685.09l2.89-6.3-5.14-10.61h3.24l3.46,7.62,3.24-7.62h3l-7.66,16.91Z"/>
  </g>
</svg>
